<mxfile host="app.diagrams.net" agent="Mozilla/5.0 (Windows NT 10.0; Win64; x64) AppleWebKit/537.36 (KHTML, like Gecko) Chrome/131.0.0.0 Safari/537.36 Edg/131.0.0.0" version="24.8.9">
  <diagram name="Page-1" id="cx33XgaklDgv_k68Mo5N">
    <mxGraphModel dx="2339" dy="807" grid="1" gridSize="10" guides="1" tooltips="1" connect="1" arrows="1" fold="1" page="1" pageScale="1" pageWidth="850" pageHeight="1100" math="0" shadow="0">
      <root>
        <mxCell id="0" />
        <mxCell id="1" parent="0" />
        <mxCell id="a9hpkdwlJVQsW9b4fiKI-92" style="edgeStyle=orthogonalEdgeStyle;rounded=0;orthogonalLoop=1;jettySize=auto;html=1;entryX=0.5;entryY=0;entryDx=0;entryDy=0;" edge="1" parent="1" source="a9hpkdwlJVQsW9b4fiKI-18" target="a9hpkdwlJVQsW9b4fiKI-91">
          <mxGeometry relative="1" as="geometry" />
        </mxCell>
        <mxCell id="a9hpkdwlJVQsW9b4fiKI-18" value="&lt;font data-font-src=&quot;https://fonts.googleapis.com/css?family=Sarabun&quot; face=&quot;Sarabun&quot;&gt;Start&lt;/font&gt;" style="ellipse;whiteSpace=wrap;html=1;" vertex="1" parent="1">
          <mxGeometry x="-509.17" y="20" width="130" height="30" as="geometry" />
        </mxCell>
        <mxCell id="a9hpkdwlJVQsW9b4fiKI-19" value="&lt;font face=&quot;Sarabun&quot;&gt;End&lt;/font&gt;" style="ellipse;whiteSpace=wrap;html=1;" vertex="1" parent="1">
          <mxGeometry x="-509.99999999999994" y="1690" width="130" height="40" as="geometry" />
        </mxCell>
        <mxCell id="a9hpkdwlJVQsW9b4fiKI-20" value="" style="edgeStyle=orthogonalEdgeStyle;rounded=0;orthogonalLoop=1;jettySize=auto;html=1;" edge="1" parent="1" source="a9hpkdwlJVQsW9b4fiKI-22" target="a9hpkdwlJVQsW9b4fiKI-24">
          <mxGeometry relative="1" as="geometry" />
        </mxCell>
        <mxCell id="a9hpkdwlJVQsW9b4fiKI-21" value="" style="edgeStyle=orthogonalEdgeStyle;rounded=0;orthogonalLoop=1;jettySize=auto;html=1;" edge="1" parent="1" source="a9hpkdwlJVQsW9b4fiKI-22" target="a9hpkdwlJVQsW9b4fiKI-37">
          <mxGeometry relative="1" as="geometry" />
        </mxCell>
        <mxCell id="a9hpkdwlJVQsW9b4fiKI-22" value="จัดถูกต้องแล้วหรือไม่" style="rhombus;whiteSpace=wrap;html=1;fontFamily=Sarabun;fontSource=https%3A%2F%2Ffonts.googleapis.com%2Fcss%3Ffamily%3DSarabun;" vertex="1" parent="1">
          <mxGeometry x="-503.33000000000004" y="260" width="116.67" height="70" as="geometry" />
        </mxCell>
        <mxCell id="a9hpkdwlJVQsW9b4fiKI-23" style="edgeStyle=orthogonalEdgeStyle;rounded=0;orthogonalLoop=1;jettySize=auto;html=1;entryX=0;entryY=0.5;entryDx=0;entryDy=0;exitX=0;exitY=0.5;exitDx=0;exitDy=0;" edge="1" parent="1" source="a9hpkdwlJVQsW9b4fiKI-24" target="a9hpkdwlJVQsW9b4fiKI-28">
          <mxGeometry relative="1" as="geometry">
            <Array as="points">
              <mxPoint x="-710" y="295" />
              <mxPoint x="-710" y="140" />
            </Array>
          </mxGeometry>
        </mxCell>
        <mxCell id="a9hpkdwlJVQsW9b4fiKI-24" value="แก้ไข" style="rounded=0;whiteSpace=wrap;html=1;" vertex="1" parent="1">
          <mxGeometry x="-690" y="275" width="130" height="40" as="geometry" />
        </mxCell>
        <mxCell id="a9hpkdwlJVQsW9b4fiKI-25" value="F" style="text;html=1;align=center;verticalAlign=middle;resizable=0;points=[];autosize=1;strokeColor=none;fillColor=none;" vertex="1" parent="1">
          <mxGeometry x="-520" y="260" width="30" height="30" as="geometry" />
        </mxCell>
        <mxCell id="a9hpkdwlJVQsW9b4fiKI-26" value="T" style="text;html=1;align=center;verticalAlign=middle;resizable=0;points=[];autosize=1;strokeColor=none;fillColor=none;" vertex="1" parent="1">
          <mxGeometry x="-410" y="325" width="30" height="30" as="geometry" />
        </mxCell>
        <mxCell id="a9hpkdwlJVQsW9b4fiKI-27" style="edgeStyle=orthogonalEdgeStyle;rounded=0;orthogonalLoop=1;jettySize=auto;html=1;entryX=0.5;entryY=0;entryDx=0;entryDy=0;" edge="1" parent="1" source="a9hpkdwlJVQsW9b4fiKI-28">
          <mxGeometry relative="1" as="geometry">
            <mxPoint x="-445" y="190" as="targetPoint" />
          </mxGeometry>
        </mxCell>
        <mxCell id="a9hpkdwlJVQsW9b4fiKI-28" value="จัด Codex โค้ด" style="rounded=0;whiteSpace=wrap;html=1;" vertex="1" parent="1">
          <mxGeometry x="-510" y="120" width="130" height="40" as="geometry" />
        </mxCell>
        <mxCell id="a9hpkdwlJVQsW9b4fiKI-29" value="" style="edgeStyle=orthogonalEdgeStyle;rounded=0;orthogonalLoop=1;jettySize=auto;html=1;" edge="1" parent="1" source="a9hpkdwlJVQsW9b4fiKI-30" target="a9hpkdwlJVQsW9b4fiKI-22">
          <mxGeometry relative="1" as="geometry" />
        </mxCell>
        <mxCell id="a9hpkdwlJVQsW9b4fiKI-30" value="ทดสอบโค้ด" style="rounded=0;whiteSpace=wrap;html=1;" vertex="1" parent="1">
          <mxGeometry x="-510" y="190" width="130" height="40" as="geometry" />
        </mxCell>
        <mxCell id="a9hpkdwlJVQsW9b4fiKI-33" value="" style="edgeStyle=orthogonalEdgeStyle;rounded=0;orthogonalLoop=1;jettySize=auto;html=1;" edge="1" parent="1" source="a9hpkdwlJVQsW9b4fiKI-35" target="a9hpkdwlJVQsW9b4fiKI-39">
          <mxGeometry relative="1" as="geometry" />
        </mxCell>
        <mxCell id="a9hpkdwlJVQsW9b4fiKI-46" value="" style="edgeStyle=orthogonalEdgeStyle;rounded=0;orthogonalLoop=1;jettySize=auto;html=1;" edge="1" parent="1" source="a9hpkdwlJVQsW9b4fiKI-35" target="a9hpkdwlJVQsW9b4fiKI-43">
          <mxGeometry relative="1" as="geometry" />
        </mxCell>
        <mxCell id="a9hpkdwlJVQsW9b4fiKI-35" value="พบหรือไม่" style="rhombus;whiteSpace=wrap;html=1;fontFamily=Sarabun;fontSource=https%3A%2F%2Ffonts.googleapis.com%2Fcss%3Ffamily%3DSarabun;" vertex="1" parent="1">
          <mxGeometry x="-503.33000000000004" y="430" width="116.67" height="70" as="geometry" />
        </mxCell>
        <mxCell id="a9hpkdwlJVQsW9b4fiKI-36" value="" style="edgeStyle=orthogonalEdgeStyle;rounded=0;orthogonalLoop=1;jettySize=auto;html=1;" edge="1" parent="1" source="a9hpkdwlJVQsW9b4fiKI-37" target="a9hpkdwlJVQsW9b4fiKI-35">
          <mxGeometry relative="1" as="geometry" />
        </mxCell>
        <mxCell id="a9hpkdwlJVQsW9b4fiKI-37" value="ตรวจสอบ Bug" style="rounded=0;whiteSpace=wrap;html=1;" vertex="1" parent="1">
          <mxGeometry x="-510" y="355" width="130" height="40" as="geometry" />
        </mxCell>
        <mxCell id="a9hpkdwlJVQsW9b4fiKI-38" style="edgeStyle=orthogonalEdgeStyle;rounded=0;orthogonalLoop=1;jettySize=auto;html=1;entryX=0;entryY=0.5;entryDx=0;entryDy=0;" edge="1" parent="1" source="a9hpkdwlJVQsW9b4fiKI-39" target="a9hpkdwlJVQsW9b4fiKI-37">
          <mxGeometry relative="1" as="geometry">
            <Array as="points">
              <mxPoint x="-710" y="465" />
              <mxPoint x="-710" y="375" />
            </Array>
          </mxGeometry>
        </mxCell>
        <mxCell id="a9hpkdwlJVQsW9b4fiKI-39" value="แก้ไข" style="rounded=0;whiteSpace=wrap;html=1;" vertex="1" parent="1">
          <mxGeometry x="-690" y="445" width="130" height="40" as="geometry" />
        </mxCell>
        <mxCell id="a9hpkdwlJVQsW9b4fiKI-40" value="F" style="text;html=1;align=center;verticalAlign=middle;resizable=0;points=[];autosize=1;strokeColor=none;fillColor=none;" vertex="1" parent="1">
          <mxGeometry x="-520" y="430" width="30" height="30" as="geometry" />
        </mxCell>
        <mxCell id="a9hpkdwlJVQsW9b4fiKI-41" value="T" style="text;html=1;align=center;verticalAlign=middle;resizable=0;points=[];autosize=1;strokeColor=none;fillColor=none;" vertex="1" parent="1">
          <mxGeometry x="-440" y="494" width="30" height="30" as="geometry" />
        </mxCell>
        <mxCell id="a9hpkdwlJVQsW9b4fiKI-47" value="" style="edgeStyle=orthogonalEdgeStyle;rounded=0;orthogonalLoop=1;jettySize=auto;html=1;" edge="1" parent="1" source="a9hpkdwlJVQsW9b4fiKI-43" target="a9hpkdwlJVQsW9b4fiKI-44">
          <mxGeometry relative="1" as="geometry" />
        </mxCell>
        <mxCell id="a9hpkdwlJVQsW9b4fiKI-43" value="กรอกข้อมูลขนาดของ Matrix1" style="shape=parallelogram;perimeter=parallelogramPerimeter;whiteSpace=wrap;html=1;fixedSize=1;" vertex="1" parent="1">
          <mxGeometry x="-543.32" y="540" width="196.66" height="50" as="geometry" />
        </mxCell>
        <mxCell id="a9hpkdwlJVQsW9b4fiKI-50" value="" style="edgeStyle=orthogonalEdgeStyle;rounded=0;orthogonalLoop=1;jettySize=auto;html=1;" edge="1" parent="1" source="a9hpkdwlJVQsW9b4fiKI-44" target="a9hpkdwlJVQsW9b4fiKI-48">
          <mxGeometry relative="1" as="geometry" />
        </mxCell>
        <mxCell id="a9hpkdwlJVQsW9b4fiKI-44" value="กรอกข้อมูลแต่แต่เซล์ของ Matrix1" style="shape=parallelogram;perimeter=parallelogramPerimeter;whiteSpace=wrap;html=1;fixedSize=1;" vertex="1" parent="1">
          <mxGeometry x="-543.33" y="619" width="196.66" height="50" as="geometry" />
        </mxCell>
        <mxCell id="a9hpkdwlJVQsW9b4fiKI-51" value="" style="edgeStyle=orthogonalEdgeStyle;rounded=0;orthogonalLoop=1;jettySize=auto;html=1;" edge="1" parent="1" source="a9hpkdwlJVQsW9b4fiKI-48" target="a9hpkdwlJVQsW9b4fiKI-49">
          <mxGeometry relative="1" as="geometry" />
        </mxCell>
        <mxCell id="a9hpkdwlJVQsW9b4fiKI-48" value="กรอกข้อมูลขนาดของ Matrix2" style="shape=parallelogram;perimeter=parallelogramPerimeter;whiteSpace=wrap;html=1;fixedSize=1;" vertex="1" parent="1">
          <mxGeometry x="-543.33" y="700" width="196.66" height="50" as="geometry" />
        </mxCell>
        <mxCell id="a9hpkdwlJVQsW9b4fiKI-64" value="" style="edgeStyle=orthogonalEdgeStyle;rounded=0;orthogonalLoop=1;jettySize=auto;html=1;" edge="1" parent="1" source="a9hpkdwlJVQsW9b4fiKI-49" target="a9hpkdwlJVQsW9b4fiKI-63">
          <mxGeometry relative="1" as="geometry" />
        </mxCell>
        <mxCell id="a9hpkdwlJVQsW9b4fiKI-49" value="กรอกข้อมูลแต่แต่เซล์ของ Matrix2" style="shape=parallelogram;perimeter=parallelogramPerimeter;whiteSpace=wrap;html=1;fixedSize=1;" vertex="1" parent="1">
          <mxGeometry x="-543.32" y="780" width="196.66" height="50" as="geometry" />
        </mxCell>
        <mxCell id="a9hpkdwlJVQsW9b4fiKI-71" value="" style="edgeStyle=orthogonalEdgeStyle;rounded=0;orthogonalLoop=1;jettySize=auto;html=1;" edge="1" parent="1" source="a9hpkdwlJVQsW9b4fiKI-58" target="a9hpkdwlJVQsW9b4fiKI-70">
          <mxGeometry relative="1" as="geometry" />
        </mxCell>
        <mxCell id="a9hpkdwlJVQsW9b4fiKI-58" value="&amp;nbsp;&lt;span style=&quot;font-family: Sarabun;&quot;&gt;Transpose&amp;nbsp;&lt;/span&gt;Matrix1" style="rounded=0;whiteSpace=wrap;html=1;" vertex="1" parent="1">
          <mxGeometry x="-520" y="1030" width="151.66" height="40" as="geometry" />
        </mxCell>
        <mxCell id="a9hpkdwlJVQsW9b4fiKI-59" value="" style="edgeStyle=orthogonalEdgeStyle;rounded=0;orthogonalLoop=1;jettySize=auto;html=1;" edge="1" parent="1" source="a9hpkdwlJVQsW9b4fiKI-60">
          <mxGeometry relative="1" as="geometry">
            <mxPoint x="-445.85185185185196" y="1320" as="targetPoint" />
          </mxGeometry>
        </mxCell>
        <mxCell id="a9hpkdwlJVQsW9b4fiKI-68" value="" style="edgeStyle=orthogonalEdgeStyle;rounded=0;orthogonalLoop=1;jettySize=auto;html=1;" edge="1" parent="1" source="a9hpkdwlJVQsW9b4fiKI-60" target="a9hpkdwlJVQsW9b4fiKI-61">
          <mxGeometry relative="1" as="geometry" />
        </mxCell>
        <mxCell id="a9hpkdwlJVQsW9b4fiKI-60" value="&lt;span style=&quot;font-family: Helvetica;&quot;&gt;Matrix1 และ&amp;nbsp;&lt;/span&gt;&lt;font face=&quot;Helvetica&quot;&gt;Matrix2&lt;/font&gt;&lt;div&gt;&lt;font face=&quot;Helvetica&quot;&gt;คูณกันได้หรือ ไม่&lt;/font&gt;&lt;/div&gt;" style="rhombus;whiteSpace=wrap;html=1;fontFamily=Sarabun;fontSource=https%3A%2F%2Ffonts.googleapis.com%2Fcss%3Ffamily%3DSarabun;" vertex="1" parent="1">
          <mxGeometry x="-520" y="1190" width="150" height="90" as="geometry" />
        </mxCell>
        <mxCell id="a9hpkdwlJVQsW9b4fiKI-89" style="edgeStyle=orthogonalEdgeStyle;rounded=0;orthogonalLoop=1;jettySize=auto;html=1;entryX=0;entryY=0.5;entryDx=0;entryDy=0;" edge="1" parent="1" source="a9hpkdwlJVQsW9b4fiKI-61" target="a9hpkdwlJVQsW9b4fiKI-86">
          <mxGeometry relative="1" as="geometry">
            <Array as="points">
              <mxPoint x="-810" y="1235" />
              <mxPoint x="-810" y="1650" />
            </Array>
          </mxGeometry>
        </mxCell>
        <mxCell id="a9hpkdwlJVQsW9b4fiKI-61" value="แสดงคำว่า&amp;nbsp;Matrix1 and Matrix2 connot multiply" style="shape=parallelogram;perimeter=parallelogramPerimeter;whiteSpace=wrap;html=1;fixedSize=1;" vertex="1" parent="1">
          <mxGeometry x="-756.6600000000001" y="1210" width="196.66" height="50" as="geometry" />
        </mxCell>
        <mxCell id="a9hpkdwlJVQsW9b4fiKI-66" value="" style="edgeStyle=orthogonalEdgeStyle;rounded=0;orthogonalLoop=1;jettySize=auto;html=1;" edge="1" parent="1" source="a9hpkdwlJVQsW9b4fiKI-63" target="a9hpkdwlJVQsW9b4fiKI-65">
          <mxGeometry relative="1" as="geometry" />
        </mxCell>
        <mxCell id="a9hpkdwlJVQsW9b4fiKI-63" value="แสดงค่าของ Matrix1" style="shape=parallelogram;perimeter=parallelogramPerimeter;whiteSpace=wrap;html=1;fixedSize=1;" vertex="1" parent="1">
          <mxGeometry x="-543.33" y="870" width="196.66" height="50" as="geometry" />
        </mxCell>
        <mxCell id="a9hpkdwlJVQsW9b4fiKI-67" value="" style="edgeStyle=orthogonalEdgeStyle;rounded=0;orthogonalLoop=1;jettySize=auto;html=1;" edge="1" parent="1" target="a9hpkdwlJVQsW9b4fiKI-60">
          <mxGeometry relative="1" as="geometry">
            <mxPoint x="-444.96296296296305" y="1150" as="sourcePoint" />
          </mxGeometry>
        </mxCell>
        <mxCell id="a9hpkdwlJVQsW9b4fiKI-69" value="" style="edgeStyle=orthogonalEdgeStyle;rounded=0;orthogonalLoop=1;jettySize=auto;html=1;" edge="1" parent="1" source="a9hpkdwlJVQsW9b4fiKI-65" target="a9hpkdwlJVQsW9b4fiKI-58">
          <mxGeometry relative="1" as="geometry" />
        </mxCell>
        <mxCell id="a9hpkdwlJVQsW9b4fiKI-65" value="แสดงค่าของ Matrix2" style="shape=parallelogram;perimeter=parallelogramPerimeter;whiteSpace=wrap;html=1;fixedSize=1;" vertex="1" parent="1">
          <mxGeometry x="-543.32" y="950" width="196.66" height="50" as="geometry" />
        </mxCell>
        <mxCell id="a9hpkdwlJVQsW9b4fiKI-70" value="แสดงค่า&amp;nbsp;&amp;nbsp;Transpose Matrix1" style="shape=parallelogram;perimeter=parallelogramPerimeter;whiteSpace=wrap;html=1;fixedSize=1;" vertex="1" parent="1">
          <mxGeometry x="-542.5" y="1100" width="196.66" height="50" as="geometry" />
        </mxCell>
        <mxCell id="a9hpkdwlJVQsW9b4fiKI-72" value="T" style="text;html=1;align=center;verticalAlign=middle;resizable=0;points=[];autosize=1;strokeColor=none;fillColor=none;" vertex="1" parent="1">
          <mxGeometry x="-440" y="1270" width="30" height="30" as="geometry" />
        </mxCell>
        <mxCell id="a9hpkdwlJVQsW9b4fiKI-73" value="F" style="text;html=1;align=center;verticalAlign=middle;resizable=0;points=[];autosize=1;strokeColor=none;fillColor=none;" vertex="1" parent="1">
          <mxGeometry x="-539.17" y="1200" width="30" height="30" as="geometry" />
        </mxCell>
        <mxCell id="a9hpkdwlJVQsW9b4fiKI-77" value="" style="edgeStyle=orthogonalEdgeStyle;rounded=0;orthogonalLoop=1;jettySize=auto;html=1;" edge="1" parent="1" source="a9hpkdwlJVQsW9b4fiKI-74" target="a9hpkdwlJVQsW9b4fiKI-76">
          <mxGeometry relative="1" as="geometry" />
        </mxCell>
        <mxCell id="a9hpkdwlJVQsW9b4fiKI-74" value="&amp;nbsp;คูณ Matrix1 กับ Matrix2&amp;nbsp;" style="rounded=0;whiteSpace=wrap;html=1;" vertex="1" parent="1">
          <mxGeometry x="-520" y="1320" width="151.66" height="40" as="geometry" />
        </mxCell>
        <mxCell id="a9hpkdwlJVQsW9b4fiKI-81" value="" style="edgeStyle=orthogonalEdgeStyle;rounded=0;orthogonalLoop=1;jettySize=auto;html=1;" edge="1" parent="1" source="a9hpkdwlJVQsW9b4fiKI-76">
          <mxGeometry relative="1" as="geometry">
            <mxPoint x="-445.0000000000001" y="1489.9999999999998" as="targetPoint" />
          </mxGeometry>
        </mxCell>
        <mxCell id="a9hpkdwlJVQsW9b4fiKI-76" value="แสดงค่า Matrix ที่คูณกัน" style="shape=parallelogram;perimeter=parallelogramPerimeter;whiteSpace=wrap;html=1;fixedSize=1;" vertex="1" parent="1">
          <mxGeometry x="-542.5" y="1400" width="196.66" height="50" as="geometry" />
        </mxCell>
        <mxCell id="a9hpkdwlJVQsW9b4fiKI-87" value="" style="edgeStyle=orthogonalEdgeStyle;rounded=0;orthogonalLoop=1;jettySize=auto;html=1;" edge="1" parent="1" source="a9hpkdwlJVQsW9b4fiKI-83" target="a9hpkdwlJVQsW9b4fiKI-86">
          <mxGeometry relative="1" as="geometry" />
        </mxCell>
        <mxCell id="a9hpkdwlJVQsW9b4fiKI-90" style="edgeStyle=orthogonalEdgeStyle;rounded=0;orthogonalLoop=1;jettySize=auto;html=1;exitX=1;exitY=0.5;exitDx=0;exitDy=0;entryX=1;entryY=0.5;entryDx=0;entryDy=0;" edge="1" parent="1" source="a9hpkdwlJVQsW9b4fiKI-83" target="a9hpkdwlJVQsW9b4fiKI-91">
          <mxGeometry relative="1" as="geometry">
            <mxPoint x="-160" y="140" as="targetPoint" />
            <Array as="points">
              <mxPoint x="-200" y="1535" />
              <mxPoint x="-200" y="80" />
            </Array>
          </mxGeometry>
        </mxCell>
        <mxCell id="a9hpkdwlJVQsW9b4fiKI-83" value="&lt;font face=&quot;Helvetica&quot;&gt;ค่าตรงกับที่คาดการณ์ไว้หรือไม่&lt;/font&gt;" style="rhombus;whiteSpace=wrap;html=1;fontFamily=Sarabun;fontSource=https%3A%2F%2Ffonts.googleapis.com%2Fcss%3Ffamily%3DSarabun;" vertex="1" parent="1">
          <mxGeometry x="-519.17" y="1490" width="150" height="90" as="geometry" />
        </mxCell>
        <mxCell id="a9hpkdwlJVQsW9b4fiKI-88" value="" style="edgeStyle=orthogonalEdgeStyle;rounded=0;orthogonalLoop=1;jettySize=auto;html=1;" edge="1" parent="1" source="a9hpkdwlJVQsW9b4fiKI-86" target="a9hpkdwlJVQsW9b4fiKI-19">
          <mxGeometry relative="1" as="geometry" />
        </mxCell>
        <mxCell id="a9hpkdwlJVQsW9b4fiKI-86" value="" style="ellipse;whiteSpace=wrap;html=1;aspect=fixed;" vertex="1" parent="1">
          <mxGeometry x="-455" y="1640" width="20" height="20" as="geometry" />
        </mxCell>
        <mxCell id="a9hpkdwlJVQsW9b4fiKI-94" style="edgeStyle=orthogonalEdgeStyle;rounded=0;orthogonalLoop=1;jettySize=auto;html=1;" edge="1" parent="1" source="a9hpkdwlJVQsW9b4fiKI-91" target="a9hpkdwlJVQsW9b4fiKI-28">
          <mxGeometry relative="1" as="geometry" />
        </mxCell>
        <mxCell id="a9hpkdwlJVQsW9b4fiKI-91" value="" style="ellipse;whiteSpace=wrap;html=1;aspect=fixed;" vertex="1" parent="1">
          <mxGeometry x="-454.17" y="70" width="20" height="20" as="geometry" />
        </mxCell>
        <mxCell id="a9hpkdwlJVQsW9b4fiKI-95" value="T" style="text;html=1;align=center;verticalAlign=middle;resizable=0;points=[];autosize=1;strokeColor=none;fillColor=none;" vertex="1" parent="1">
          <mxGeometry x="-409.17" y="1570" width="30" height="30" as="geometry" />
        </mxCell>
        <mxCell id="a9hpkdwlJVQsW9b4fiKI-96" value="F" style="text;html=1;align=center;verticalAlign=middle;resizable=0;points=[];autosize=1;strokeColor=none;fillColor=none;" vertex="1" parent="1">
          <mxGeometry x="-369.99999999999994" y="1500" width="30" height="30" as="geometry" />
        </mxCell>
      </root>
    </mxGraphModel>
  </diagram>
</mxfile>
